<svg width="64" height="53" viewBox="0 0 64 53" fill="none" xmlns="http://www.w3.org/2000/svg">
<path d="M53 10L55.729 11.8193C55.8448 11.8966 56 11.8135 56 11.6743C56 11.578 56.078 11.5 56.1743 11.5H56.5C56.8201 11.5 57.1272 11.3728 57.3536 11.1464L57.5 11C57.8201 10.6799 58 10.2456 58 9.79289V9.5V9V8.70711C58 8.31658 58.3166 8 58.7071 8C58.8946 8 59.0745 8.0745 59.2071 8.20711L59.5 8.5C59.8312 8.83117 60.1068 9.21356 60.3162 9.63246L60.5 10L60.5528 10.1056C60.8469 10.6938 61 11.3424 61 12C61 12.3288 60.9234 12.6531 60.7764 12.9472L60.7037 13.0926C60.5688 13.3624 60.3913 13.6087 60.1779 13.8221L60 14L59.5 14.5C59.2239 14.7761 59.2239 15.2239 59.5 15.5L59.8604 15.8604C59.9529 15.9529 60.0298 16.0596 60.0883 16.1766L60.5 17L61 18L61.5 19L62 20L62.5 21L62.5528 21.1056C62.8469 21.6938 63 22.3424 63 23V24V25V26V27V28V29V30V31C63 31.6576 62.8469 32.3062 62.5528 32.8944L62.5 33L62 34L61.5 35L61 36L60.1486 37.277C60.0498 37.4253 59.9365 37.5635 59.8105 37.6895C59.6049 37.8951 59.4337 38.1326 59.3036 38.3928L59.25 38.5C59.0844 38.8312 58.8665 39.1335 58.6047 39.3953L58 40L57 41L56 42L55 43L54.5 43.5L53.5 44.5C53.1799 44.8201 53 45.2544 53 45.7071V46V47V48V49V50.0365C53 50.3413 52.929 50.6419 52.7927 50.9146C52.6027 51.2946 52.2946 51.6027 51.9146 51.7927L51.678 51.911C51.5601 51.9699 51.4525 52.0475 51.3593 52.1407C51.1292 52.3708 50.8172 52.5 50.4919 52.5H50H49H48H47H46H45H44H43.5081C43.1828 52.5 42.8708 52.3708 42.6407 52.1407C42.5475 52.0475 42.4699 51.9399 42.411 51.822L42.178 51.3561C42.0601 51.1202 41.9049 50.9049 41.7185 50.7185L41.1036 50.1036C41.0373 50.0373 41 49.9473 41 49.8536C41 49.6583 40.8417 49.5 40.6464 49.5H40H39H38H37H36H34H33.5C33.2239 49.5 33 49.7239 33 50V50.2929C33 50.7456 32.8201 51.1799 32.5 51.5L32.3221 51.6779C32.1087 51.8913 31.8624 52.0688 31.5926 52.2037C31.2029 52.3986 30.7732 52.5 30.3374 52.5H25.118C24.3828 52.5 23.6576 52.3288 23 52C22.3597 51.6799 21.8728 51.1185 21.6464 50.4393L21.5732 50.2197C21.5245 50.0734 21.4654 49.9308 21.3964 49.7929L21.2939 49.5879C21.1006 49.2013 21 48.775 21 48.3427V48.2808C21 48.0943 20.9771 47.9085 20.9319 47.7276L20.5874 46.3495C20.536 46.1441 20.3515 46 20.1397 46C20.0486 46 19.9596 45.973 19.8838 45.9225L18.5 45L18.1767 44.7845C17.3941 44.2628 16.665 43.665 16 43L15 42L14 41L13 40L12.1644 39.1644C12.0555 39.0555 11.9649 38.9298 11.896 38.792C11.6533 38.3066 11.1572 38 10.6145 38H10C9.66792 38 9.33709 37.9593 9.01493 37.8787L7.5 37.5L6.48705 37.1623C6.16675 37.0556 5.87571 36.8757 5.63698 36.637L5.35355 36.3536C5.12718 36.1272 5 35.8201 5 35.5C5 35.1799 5.12718 34.8728 5.35355 34.6464L5.35925 34.6407C5.45248 34.5475 5.53006 34.4399 5.58902 34.322L5.77639 33.9472C5.92344 33.6531 6 33.3288 6 33V32.5081C6 32.1828 5.87077 31.8708 5.64075 31.6407C5.54752 31.5475 5.43989 31.4699 5.32197 31.411L4.5 31L3.13246 30.3162C2.71356 30.1068 2.33117 29.8312 2 29.5L1.82206 29.3221C1.60875 29.1087 1.43122 28.8624 1.29631 28.5926C1.10145 28.2029 1 27.7732 1 27.3374V26V25.0898C1 24.366 1.08877 23.6449 1.26431 22.9427C1.42097 22.3161 1.64573 21.7085 1.93458 21.1308L2 21L2.21554 20.6767C2.73724 19.8941 3.33496 19.165 4 18.5L4.64645 17.8536C4.87282 17.6272 5.17986 17.5 5.5 17.5C6.16233 17.5 6.82034 17.6068 7.44868 17.8162L7.85925 17.9531C7.95296 17.9843 8.04435 18.0222 8.1327 18.0664C9.16398 18.582 10.418 18.164 10.9336 17.1327C10.9778 17.0443 11.0157 16.953 11.0469 16.8592L11.25 16.25C11.4144 15.7568 11.6914 15.3086 12.059 14.941L12.2045 14.7955C12.401 14.599 12.5776 14.3835 12.7318 14.1523L12.8311 14.0033C13.2727 13.341 13.841 12.7727 14.5033 12.3311C14.8336 12.1109 15.1414 11.8586 15.4221 11.5779L16 11L16.801 10.199C16.9333 10.0667 17.0784 9.9477 17.2342 9.84387L18.031 9.31269C18.324 9.11734 18.5 8.78847 18.5 8.43629C18.5 8.15694 18.389 7.88903 18.1915 7.6915L17.7815 7.28149C17.5951 7.09505 17.4399 6.87977 17.322 6.64394L17 6C16.6688 5.33767 16.2331 4.73305 15.7094 4.20943L15.5 4L15.309 3.80902C14.8132 3.3132 14.6401 2.5798 14.8618 1.91459L14.9188 1.74352C14.9722 1.58338 15.0621 1.43786 15.1815 1.31849C15.3854 1.11456 15.662 1 15.9504 1H17H19H20.5C21.1623 1 21.8203 1.10678 22.4487 1.31623L22.5432 1.34772C22.8473 1.44911 23.1439 1.57197 23.4307 1.71536L25 2.5C25.6623 2.83117 26.2669 3.26695 26.7906 3.79057L27 4C27.6276 4.62756 28.5196 4.91341 29.395 4.7675L31 4.5L31.0408 4.4932C33.0102 4.16496 35.0034 4 37 4L41.5 4.5L42.9699 4.86746C44.6516 5.28789 46.2822 5.89111 47.8327 6.66634C48.9425 7.22126 50.0072 7.86227 51.0169 8.5835L53 10Z" fill="#2E2E36" stroke="#2E2E36"/>
</svg>
